<svg width="13" height="13" viewBox="0 0 13 13" fill="none" xmlns="http://www.w3.org/2000/svg">
<path fill-rule="evenodd" clip-rule="evenodd" d="M6.06667 9.75H6.93333V10.5625H6.06667V9.75ZM6.06667 11.375H6.93333C7.41173 11.375 7.8 11.011 7.8 10.5625V9.75C7.8 9.3015 7.41173 8.9375 6.93333 8.9375H6.06667C5.58827 8.9375 5.2 9.3015 5.2 9.75V10.5625C5.2 11.011 5.58827 11.375 6.06667 11.375ZM2.6 9.75H3.46667V10.5625H2.6V9.75ZM2.6 11.375H3.46667C3.94507 11.375 4.33333 11.011 4.33333 10.5625V9.75C4.33333 9.3015 3.94507 8.9375 3.46667 8.9375H2.6C2.1216 8.9375 1.73333 9.3015 1.73333 9.75V10.5625C1.73333 11.011 2.1216 11.375 2.6 11.375ZM6.06667 6.5H6.93333V7.3125H6.06667V6.5ZM6.06667 8.125H6.93333C7.41173 8.125 7.8 7.761 7.8 7.3125V6.5C7.8 6.0515 7.41173 5.6875 6.93333 5.6875H6.06667C5.58827 5.6875 5.2 6.0515 5.2 6.5V7.3125C5.2 7.761 5.58827 8.125 6.06667 8.125ZM2.6 6.5H3.46667V7.3125H2.6V6.5ZM2.6 8.125H3.46667C3.94507 8.125 4.33333 7.761 4.33333 7.3125V6.5C4.33333 6.0515 3.94507 5.6875 3.46667 5.6875H2.6C2.1216 5.6875 1.73333 6.0515 1.73333 6.5V7.3125C1.73333 7.761 2.1216 8.125 2.6 8.125ZM12.1333 3.25H0.866667V2.4375C0.866667 1.989 1.25493 1.625 1.73333 1.625H3.46667V2.03125C3.46667 2.25591 3.66037 2.4375 3.9 2.4375C4.13963 2.4375 4.33333 2.25591 4.33333 2.03125V1.625H8.66667V2.03125C8.66667 2.25591 8.86037 2.4375 9.1 2.4375C9.33963 2.4375 9.53333 2.25591 9.53333 2.03125V1.625H11.2667C11.7451 1.625 12.1333 1.989 12.1333 2.4375V3.25ZM12.1333 11.375C12.1333 11.8235 11.7451 12.1875 11.2667 12.1875H1.73333C1.25493 12.1875 0.866667 11.8235 0.866667 11.375V4.0625H12.1333V11.375ZM11.2667 0.8125H9.53333V0.40625C9.53333 0.182 9.33963 0 9.1 0C8.86037 0 8.66667 0.182 8.66667 0.40625V0.8125H4.33333V0.40625C4.33333 0.182 4.13963 0 3.9 0C3.66037 0 3.46667 0.182 3.46667 0.40625V0.8125H1.73333C0.7761 0.8125 0 1.54009 0 2.4375V11.375C0 12.2724 0.7761 13 1.73333 13H11.2667C12.2239 13 13 12.2724 13 11.375V2.4375C13 1.54009 12.2239 0.8125 11.2667 0.8125ZM9.53333 6.5H10.4V7.3125H9.53333V6.5ZM9.53333 8.125H10.4C10.8784 8.125 11.2667 7.761 11.2667 7.3125V6.5C11.2667 6.0515 10.8784 5.6875 10.4 5.6875H9.53333C9.05493 5.6875 8.66667 6.0515 8.66667 6.5V7.3125C8.66667 7.761 9.05493 8.125 9.53333 8.125ZM9.53333 9.75H10.4V10.5625H9.53333V9.75ZM9.53333 11.375H10.4C10.8784 11.375 11.2667 11.011 11.2667 10.5625V9.75C11.2667 9.3015 10.8784 8.9375 10.4 8.9375H9.53333C9.05493 8.9375 8.66667 9.3015 8.66667 9.75V10.5625C8.66667 11.011 9.05493 11.375 9.53333 11.375Z" fill="#009AAA"/>
</svg>
