<svg width="16" height="15" viewBox="0 0 16 15" fill="none" xmlns="http://www.w3.org/2000/svg">
<path d="M5.03375 4.27983L6.75168 2.5544V9.74869C6.75168 9.94765 6.83072 10.1385 6.97141 10.2792C7.11209 10.4198 7.30291 10.4989 7.50187 10.4989C7.70083 10.4989 7.89164 10.4198 8.03233 10.2792C8.17302 10.1385 8.25206 9.94765 8.25206 9.74869V2.5544L9.96999 4.27983C10.0397 4.35014 10.1227 4.40595 10.2141 4.44404C10.3055 4.48212 10.4036 4.50173 10.5026 4.50173C10.6017 4.50173 10.6997 4.48212 10.7911 4.44404C10.8825 4.40595 10.9655 4.35014 11.0352 4.27983C11.1056 4.21009 11.1614 4.12712 11.1995 4.0357C11.2375 3.94428 11.2572 3.84623 11.2572 3.74719C11.2572 3.64816 11.2375 3.55011 11.1995 3.45869C11.1614 3.36727 11.1056 3.2843 11.0352 3.21456L8.0345 0.213813C7.96316 0.145516 7.87903 0.0919789 7.78694 0.0562742C7.6043 -0.0187581 7.39944 -0.0187581 7.2168 0.0562742C7.12471 0.0919789 7.04058 0.145516 6.96924 0.213813L3.96849 3.21456C3.89854 3.28451 3.84306 3.36755 3.8052 3.45894C3.76735 3.55033 3.74787 3.64828 3.74787 3.74719C3.74787 3.84611 3.76735 3.94406 3.8052 4.03545C3.84306 4.12684 3.89854 4.20988 3.96849 4.27983C4.03844 4.34977 4.12147 4.40526 4.21286 4.44311C4.30425 4.48097 4.4022 4.50045 4.50112 4.50045C4.60004 4.50045 4.69799 4.48097 4.78938 4.44311C4.88077 4.40526 4.96381 4.34977 5.03375 4.27983ZM14.2536 8.9985C14.0546 8.9985 13.8638 9.07754 13.7231 9.21823C13.5824 9.35892 13.5034 9.54973 13.5034 9.74869V12.7494C13.5034 12.9484 13.4243 13.1392 13.2836 13.2799C13.143 13.4206 12.9521 13.4996 12.7532 13.4996H2.25056C2.0516 13.4996 1.86079 13.4206 1.7201 13.2799C1.57941 13.1392 1.50037 12.9484 1.50037 12.7494V9.74869C1.50037 9.54973 1.42134 9.35892 1.28065 9.21823C1.13996 9.07754 0.949149 8.9985 0.750187 8.9985C0.551225 8.9985 0.360412 9.07754 0.219725 9.21823C0.0790373 9.35892 0 9.54973 0 9.74869V12.7494C0 13.3463 0.237112 13.9188 0.659174 14.3408C1.08124 14.7629 1.65368 15 2.25056 15H12.7532C13.3501 15 13.9225 14.7629 14.3446 14.3408C14.7666 13.9188 15.0037 13.3463 15.0037 12.7494V9.74869C15.0037 9.54973 14.9247 9.35892 14.784 9.21823C14.6433 9.07754 14.4525 8.9985 14.2536 8.9985Z" fill="#009AAA"/>
</svg>
