<svg width="167" height="37" viewBox="0 0 167 37" fill="none" xmlns="http://www.w3.org/2000/svg">
<path fill-rule="evenodd" clip-rule="evenodd" d="M10.3015 12.2799C10.2288 12.4071 10.1485 12.5005 10.0635 12.565C9.97997 12.6278 9.87637 12.66 9.75431 12.66C9.61667 12.66 9.45593 12.5876 9.27195 12.4458C9.08645 12.3025 8.8515 12.143 8.57324 11.9706C8.29653 11.7983 7.95955 11.6421 7.56845 11.4971C7.17581 11.3537 6.70279 11.2844 6.14318 11.2844C5.61914 11.2844 5.15694 11.3585 4.75811 11.5051C4.35619 11.6533 4.02228 11.8515 3.75021 12.1044C3.47969 12.3573 3.2772 12.6536 3.13962 12.9951C3.00049 13.335 2.93247 13.7039 2.93247 14.0985C2.93247 14.6059 3.0515 15.0231 3.2911 15.3549C3.52916 15.6884 3.84296 15.9719 4.2356 16.2087C4.6267 16.4438 5.0719 16.6484 5.56812 16.8208C6.06743 16.9931 6.57603 17.1703 7.09698 17.3572C7.61484 17.544 8.12651 17.7518 8.62273 17.9805C9.11894 18.2141 9.56417 18.5072 9.95521 18.8584C10.3463 19.2128 10.6617 19.6477 10.8998 20.1616C11.1394 20.6738 11.2584 21.3068 11.2584 22.0558C11.2584 22.8451 11.1301 23.5893 10.8704 24.282C10.6123 24.9762 10.2335 25.5819 9.73882 26.0957C9.24104 26.6079 8.63043 27.0139 7.90698 27.307C7.18352 27.6018 6.36113 27.75 5.44136 27.75C4.3098 27.75 3.2849 27.5373 2.36358 27.1121C1.44226 26.6869 0.655439 26.1118 0 25.387L0.677061 24.2256C0.743533 24.1337 0.822406 24.0565 0.915156 23.992C1.0079 23.9292 1.1099 23.897 1.2243 23.897C1.32941 23.897 1.44843 23.9437 1.58292 24.0307C1.71432 24.1193 1.86736 24.2304 2.03586 24.3657C2.2059 24.4995 2.3976 24.6476 2.61711 24.8087C2.83507 24.9666 3.08395 25.1148 3.36375 25.2484C3.642 25.3838 3.95889 25.4949 4.31443 25.5835C4.66843 25.6737 5.07035 25.7171 5.51401 25.7171C6.07051 25.7171 6.56831 25.635 7.00424 25.4755C7.44016 25.3177 7.8096 25.0905 8.11413 24.8006C8.41557 24.5107 8.64901 24.1628 8.80978 23.7601C8.97209 23.3541 9.05245 22.9048 9.05245 22.4086C9.05245 21.8609 8.93344 21.4131 8.69538 21.062C8.45577 20.7141 8.14351 20.4209 7.7555 20.1841C7.36749 19.9489 6.92229 19.7508 6.42299 19.5865C5.92213 19.4206 5.41355 19.253 4.89724 19.0807C4.37938 18.9083 3.87077 18.7086 3.36837 18.4798C2.86752 18.2527 2.42386 17.9596 2.03586 17.5971C1.64785 17.2347 1.3356 16.7821 1.09754 16.2392C0.857931 15.6964 0.738909 15.0247 0.738909 14.2258C0.738909 13.5862 0.857931 12.9661 1.09754 12.3685C1.3356 11.7725 1.68342 11.2425 2.13945 10.7787C2.59393 10.3163 3.15661 9.94421 3.82442 9.66718C4.49067 9.38857 5.25589 9.25 6.12002 9.25C7.08927 9.25 7.97191 9.40947 8.76803 9.72998C9.56417 10.0506 10.2629 10.5129 10.8704 11.1185L10.3015 12.2799Z" fill="#292A29"/>
<path fill-rule="evenodd" clip-rule="evenodd" d="M36.7694 25.6638C37.626 25.3142 38.3535 24.8096 38.9571 24.1502C39.559 23.4908 40.0231 22.6853 40.3528 21.7353C40.6808 20.7853 40.8448 19.7101 40.8448 18.5113C40.8448 17.3091 40.6808 16.2338 40.3528 15.2769C40.0231 14.3217 39.559 13.5144 38.9571 12.8568C38.3535 12.1973 37.626 11.6911 36.7694 11.3344L37.8424 9.25C39.0322 9.74062 40.0509 10.4297 40.8989 11.317C41.7485 12.2043 42.4044 13.2569 42.8684 14.48C43.3343 15.7014 43.5663 17.0464 43.5663 18.5113C43.5663 19.9728 43.3343 21.3177 42.8684 22.5409C42.4044 23.764 41.7485 24.8165 40.8989 25.697C40.0509 26.5808 39.0322 27.2646 37.8424 27.75L36.7694 25.6638ZM29.9586 27.75C28.7723 27.2646 27.7552 26.5808 26.9091 25.697C26.0612 24.8165 25.4052 23.764 24.9394 22.5409C24.4736 21.3177 24.2433 19.9728 24.2433 18.5113C24.2433 17.0464 24.4736 15.7014 24.9394 14.48C25.4052 13.2569 26.0612 12.2043 26.9091 11.317C27.7552 10.4297 28.7723 9.74062 29.9586 9.25L31.0402 11.3344C30.1819 11.6911 29.4509 12.1973 28.8438 12.8568C28.2384 13.5144 27.7692 14.3217 27.4429 15.2769C27.1132 16.2338 26.9492 17.3091 26.9492 18.5113C26.9492 19.7101 27.1132 20.7853 27.4429 21.7353C27.7692 22.6853 28.2384 23.4908 28.8438 24.1502C29.4509 24.8096 30.1819 25.3142 31.0402 25.6638L29.9586 27.75Z" fill="#292A29"/>
<path fill-rule="evenodd" clip-rule="evenodd" d="M66.4048 25.6454V27.75H56.5517V9.25H58.8905V25.6454H66.4048Z" fill="#292A29"/>
<path fill-rule="evenodd" clip-rule="evenodd" d="M87.3029 9.25L80.226 27.75H78.119L71.0421 9.25H72.9203C73.129 9.25 73.3006 9.30763 73.429 9.41798C73.5572 9.53157 73.6546 9.67162 73.7195 9.8445L78.6152 22.8969C78.7203 23.1884 78.8239 23.5079 78.9244 23.852C79.0249 24.1962 79.1145 24.5569 79.1965 24.9357C79.2784 24.5569 79.3634 24.1962 79.4515 23.852C79.5397 23.5079 79.6355 23.1884 79.7437 22.8969L84.6255 9.8445C84.6749 9.69955 84.7692 9.5645 84.9099 9.43778C85.0506 9.31253 85.2253 9.25 85.4247 9.25H87.3029Z" fill="#292A29"/>
<path fill-rule="evenodd" clip-rule="evenodd" d="M91.9405 27.75H94.2913V9.25H91.9405V27.75Z" fill="#56AB2F"/>
<path fill-rule="evenodd" clip-rule="evenodd" d="M104.564 11.3562H98.9297V9.25H112.527C112.527 10.6283 110.084 11.3562 110.084 11.3562H104.564ZM104.564 27.75H106.904V14.3946H104.564V27.75Z" fill="#56AB2F"/>
<path fill-rule="evenodd" clip-rule="evenodd" d="M124.085 25.5677C124.803 25.5677 125.445 25.4392 126.009 25.1837C126.575 24.9298 127.055 24.5718 127.445 24.1128C127.836 23.6539 128.136 23.1055 128.344 22.4675C128.548 21.8296 128.653 21.1282 128.653 20.3633V9.25H130.988V20.3633C130.988 21.4162 130.83 22.3959 130.512 23.2958C130.192 24.1991 129.738 24.9769 129.141 25.6393C128.548 26.2967 127.824 26.8126 126.967 27.187C126.109 27.5612 125.149 27.75 124.085 27.75C123.016 27.75 122.055 27.5612 121.198 27.187C120.342 26.8126 119.616 26.2967 119.016 25.6393C118.42 24.9769 117.963 24.1991 117.643 23.2958C117.323 22.3959 117.164 21.4162 117.164 20.3633V9.25H119.503V20.3487C119.503 21.1136 119.605 21.8166 119.812 22.4546C120.018 23.0924 120.317 23.6409 120.707 24.0998C121.1 24.5603 121.58 24.9184 122.151 25.1788C122.719 25.4375 123.364 25.5677 124.085 25.5677Z" fill="#292A29"/>
<path fill-rule="evenodd" clip-rule="evenodd" d="M137.978 25.7228H142.11C143.047 25.7228 143.895 25.5615 144.654 25.2321C145.415 24.906 146.059 24.435 146.594 23.8191C147.126 23.2048 147.539 22.4473 147.829 21.5531C148.12 20.6573 148.265 19.6428 148.265 18.5082C148.265 17.3703 148.12 16.3559 147.829 15.4601C147.539 14.5658 147.126 13.8083 146.594 13.1874C146.059 12.5683 145.415 12.0957 144.654 11.7679C143.895 11.4402 143.047 11.2788 142.11 11.2788H137.978C137.978 11.2788 135.627 11.1916 135.627 9.25H142.11C143.386 9.25 144.55 9.47228 145.607 9.91526C146.659 10.3599 147.564 10.9858 148.313 11.8009C149.066 12.6144 149.647 13.5893 150.06 14.7239C150.471 15.8602 150.676 17.1217 150.676 18.5082C150.676 19.8916 150.471 21.153 150.06 22.2893C149.647 23.4272 149.066 24.3988 148.313 25.2074C147.564 26.0159 146.659 26.6433 145.607 27.0847C144.55 27.5293 143.386 27.75 142.11 27.75H135.627C135.627 25.7294 137.978 25.7228 137.978 25.7228Z" fill="#292A29"/>
<path fill-rule="evenodd" clip-rule="evenodd" d="M166.027 25.7113L166.014 27.75H155.314V9.25H166.014V11.292H157.665V17.4362H164.427V19.3975H157.665V25.7113H166.027Z" fill="#292A29"/>
<path fill-rule="evenodd" clip-rule="evenodd" d="M35.7509 2.27303C35.7509 1.0177 34.7302 0 33.4713 0C32.2126 0 31.1922 1.0177 31.1922 2.27303C31.1922 3.52858 32.2126 4.54628 33.4713 4.54628C34.7302 4.54628 35.7509 3.52858 35.7509 2.27303Z" fill="url(#paint0_linear)"/>
<path fill-rule="evenodd" clip-rule="evenodd" d="M29.4853 2.67858C29.1679 1.80929 28.2038 1.36111 27.332 1.67726C26.4603 1.99382 26.0104 2.95526 26.3278 3.82476C26.6453 4.69405 27.6094 5.14223 28.4812 4.82588C29.3528 4.50973 29.8027 3.54808 29.4853 2.67858Z" fill="url(#paint1_linear)"/>
<path fill-rule="evenodd" clip-rule="evenodd" d="M23.8967 5.32967C23.4871 4.84306 22.7594 4.77946 22.2709 5.18775C21.783 5.59647 21.7191 6.32217 22.1288 6.8092C22.5386 7.296 23.2663 7.3594 23.7544 6.95068C24.2428 6.54238 24.3063 5.81648 23.8967 5.32967Z" fill="url(#paint2_linear)"/>
<path fill-rule="evenodd" clip-rule="evenodd" d="M20.5203 8.41791C19.4301 7.79024 18.036 8.16285 17.4066 9.25004C16.7773 10.337 17.1505 11.7273 18.2408 12.3552C19.3312 12.9829 20.7251 12.6105 21.3545 11.5233C21.9838 10.4359 21.6104 9.04558 20.5203 8.41791Z" fill="url(#paint3_linear)"/>
<path fill-rule="evenodd" clip-rule="evenodd" d="M17.7394 14.0322C16.8257 13.8716 15.9547 14.48 15.7935 15.3912C15.6322 16.3023 16.2424 17.1714 17.1562 17.3322C18.0697 17.4927 18.9409 16.8842 19.1022 15.973C19.2632 15.0618 18.6532 14.1928 17.7394 14.0322Z" fill="url(#paint4_linear)"/>
<path fill-rule="evenodd" clip-rule="evenodd" d="M17.2473 20.1844C16.6198 20.2949 16.2009 20.8917 16.3115 21.5174C16.422 22.1436 17.0204 22.5614 17.648 22.4509C18.2758 22.3405 18.6946 21.7437 18.5842 21.1177C18.4734 20.492 17.875 20.0738 17.2473 20.1844Z" fill="url(#paint5_linear)"/>
<path fill-rule="evenodd" clip-rule="evenodd" d="M18.2408 24.6445C17.1505 25.2723 16.7771 26.6625 17.4064 27.75C18.0358 28.8371 19.4297 29.2098 20.5201 28.5819C21.6103 27.9542 21.9836 26.5641 21.3542 25.4767C20.7249 24.3895 19.331 24.0168 18.2408 24.6445Z" fill="url(#paint6_linear)"/>
<path fill-rule="evenodd" clip-rule="evenodd" d="M21.7257 29.8536C21.1294 30.5622 21.222 31.6189 21.9327 32.2135C22.6434 32.8084 23.7031 32.7161 24.2994 32.0074C24.896 31.2984 24.8031 30.2419 24.0923 29.647C23.3819 29.0524 22.322 29.1447 21.7257 29.8536Z" fill="url(#paint7_linear)"/>
<path fill-rule="evenodd" clip-rule="evenodd" d="M26.8221 33.3547C26.6039 33.9522 26.9128 34.6122 27.5115 34.8294C28.1105 35.0469 28.7728 34.7394 28.9906 34.142C29.2085 33.5445 28.8999 32.8845 28.3008 32.6669C27.7022 32.4493 27.04 32.7573 26.8221 33.3547Z" fill="url(#paint8_linear)"/>
<path fill-rule="evenodd" clip-rule="evenodd" d="M31.1917 34.727C31.1917 35.9823 32.2126 37 33.4713 37C34.7302 37 35.7508 35.9823 35.7508 34.727C35.7508 33.4714 34.7302 32.4539 33.4713 32.4537C32.2126 32.4537 31.1917 33.4714 31.1917 34.727Z" fill="url(#paint9_linear)"/>
<path fill-rule="evenodd" clip-rule="evenodd" d="M37.4576 34.3214C37.775 35.1909 38.7386 35.6391 39.6105 35.3228C40.4825 35.0062 40.932 34.0448 40.6145 33.1753C40.2976 32.306 39.3335 31.8578 38.4614 32.1741C37.59 32.4905 37.1402 33.4519 37.4576 34.3214Z" fill="url(#paint10_linear)"/>
<path fill-rule="evenodd" clip-rule="evenodd" d="M43.0459 31.6703C43.4557 32.1573 44.1834 32.2205 44.6713 31.8122C45.1598 31.4035 45.2235 30.6778 44.8136 30.191C44.4042 29.704 43.6766 29.6405 43.1882 30.0493C42.7001 30.4575 42.6363 31.1835 43.0459 31.6703Z" fill="url(#paint11_linear)"/>
<path fill-rule="evenodd" clip-rule="evenodd" d="M46.4224 28.5821C47.5126 29.21 48.9066 28.8371 49.5362 27.7502C50.1656 26.663 49.7924 25.2725 48.702 24.645C47.6117 24.0171 46.2176 24.3897 45.5883 25.4767C44.9589 26.5641 45.3325 27.9544 46.4224 28.5821Z" fill="url(#paint12_linear)"/>
<path fill-rule="evenodd" clip-rule="evenodd" d="M49.2032 22.9675C50.1169 23.1286 50.9881 22.5202 51.1494 21.6089C51.3104 20.6978 50.7004 19.8285 49.7864 19.6681C48.8729 19.5074 48.0019 20.1159 47.8407 21.027C47.6794 21.9381 48.2896 22.8073 49.2032 22.9675Z" fill="url(#paint13_linear)"/>
<path fill-rule="evenodd" clip-rule="evenodd" d="M49.6953 16.8157C50.323 16.7051 50.7418 16.1087 50.6314 15.4825C50.5206 14.8566 49.9222 14.4385 49.2943 14.5492C48.6671 14.6594 48.2481 15.2562 48.3587 15.8822C48.4692 16.508 49.0679 16.9262 49.6953 16.8157Z" fill="url(#paint14_linear)"/>
<path fill-rule="evenodd" clip-rule="evenodd" d="M48.702 12.3556C49.7924 11.7277 50.1655 10.3374 49.5362 9.25019C48.9066 8.16282 47.5126 7.7902 46.4228 8.4183C45.3325 9.04595 44.9592 10.436 45.5882 11.5233C46.2176 12.6106 47.6116 12.9832 48.702 12.3556Z" fill="url(#paint15_linear)"/>
<path fill-rule="evenodd" clip-rule="evenodd" d="M45.2169 7.14634C45.8135 6.43786 45.7206 5.38132 45.0098 4.7864C44.2994 4.19148 43.2395 4.28406 42.6434 4.99276C42.0469 5.70145 42.1398 6.7582 42.8505 7.35291C43.561 7.94804 44.6208 7.85546 45.2169 7.14634Z" fill="url(#paint16_linear)"/>
<path fill-rule="evenodd" clip-rule="evenodd" d="M40.1207 3.64526C40.3386 3.04803 40.03 2.38804 39.4314 2.17056C38.8323 1.95308 38.1701 2.26082 37.9523 2.85847C37.7341 3.4555 38.043 4.11591 38.6416 4.33339C39.2407 4.55065 39.9028 4.2427 40.1207 3.64526Z" fill="url(#paint17_linear)"/>
<defs>
<linearGradient id="paint0_linear" x1="15.7677" y1="18.5" x2="51.1752" y2="18.5" gradientUnits="userSpaceOnUse">
<stop stop-color="#56AB2F"/>
<stop offset="1" stop-color="#A8E063"/>
</linearGradient>
<linearGradient id="paint1_linear" x1="15.7677" y1="18.5" x2="51.1752" y2="18.5" gradientUnits="userSpaceOnUse">
<stop stop-color="#56AB2F"/>
<stop offset="1" stop-color="#A8E063"/>
</linearGradient>
<linearGradient id="paint2_linear" x1="15.7677" y1="18.5" x2="51.1752" y2="18.5" gradientUnits="userSpaceOnUse">
<stop stop-color="#56AB2F"/>
<stop offset="1" stop-color="#A8E063"/>
</linearGradient>
<linearGradient id="paint3_linear" x1="15.7677" y1="18.5" x2="51.1752" y2="18.5" gradientUnits="userSpaceOnUse">
<stop stop-color="#56AB2F"/>
<stop offset="1" stop-color="#A8E063"/>
</linearGradient>
<linearGradient id="paint4_linear" x1="15.7677" y1="18.5" x2="51.1752" y2="18.5" gradientUnits="userSpaceOnUse">
<stop stop-color="#56AB2F"/>
<stop offset="1" stop-color="#A8E063"/>
</linearGradient>
<linearGradient id="paint5_linear" x1="15.7677" y1="18.5" x2="51.1752" y2="18.5" gradientUnits="userSpaceOnUse">
<stop stop-color="#56AB2F"/>
<stop offset="1" stop-color="#A8E063"/>
</linearGradient>
<linearGradient id="paint6_linear" x1="15.7677" y1="18.5" x2="51.1752" y2="18.5" gradientUnits="userSpaceOnUse">
<stop stop-color="#56AB2F"/>
<stop offset="1" stop-color="#A8E063"/>
</linearGradient>
<linearGradient id="paint7_linear" x1="15.7677" y1="18.5" x2="51.1752" y2="18.5" gradientUnits="userSpaceOnUse">
<stop stop-color="#56AB2F"/>
<stop offset="1" stop-color="#A8E063"/>
</linearGradient>
<linearGradient id="paint8_linear" x1="15.7677" y1="18.5" x2="51.1752" y2="18.5" gradientUnits="userSpaceOnUse">
<stop stop-color="#56AB2F"/>
<stop offset="1" stop-color="#A8E063"/>
</linearGradient>
<linearGradient id="paint9_linear" x1="15.7677" y1="18.5" x2="51.1752" y2="18.5" gradientUnits="userSpaceOnUse">
<stop stop-color="#56AB2F"/>
<stop offset="1" stop-color="#A8E063"/>
</linearGradient>
<linearGradient id="paint10_linear" x1="15.7677" y1="18.5" x2="51.1752" y2="18.5" gradientUnits="userSpaceOnUse">
<stop stop-color="#56AB2F"/>
<stop offset="1" stop-color="#A8E063"/>
</linearGradient>
<linearGradient id="paint11_linear" x1="15.7677" y1="18.5" x2="51.1752" y2="18.5" gradientUnits="userSpaceOnUse">
<stop stop-color="#56AB2F"/>
<stop offset="1" stop-color="#A8E063"/>
</linearGradient>
<linearGradient id="paint12_linear" x1="15.7677" y1="18.5" x2="51.1752" y2="18.5" gradientUnits="userSpaceOnUse">
<stop stop-color="#56AB2F"/>
<stop offset="1" stop-color="#A8E063"/>
</linearGradient>
<linearGradient id="paint13_linear" x1="15.7677" y1="18.5" x2="51.1752" y2="18.5" gradientUnits="userSpaceOnUse">
<stop stop-color="#56AB2F"/>
<stop offset="1" stop-color="#A8E063"/>
</linearGradient>
<linearGradient id="paint14_linear" x1="15.7677" y1="18.5" x2="51.1752" y2="18.5" gradientUnits="userSpaceOnUse">
<stop stop-color="#56AB2F"/>
<stop offset="1" stop-color="#A8E063"/>
</linearGradient>
<linearGradient id="paint15_linear" x1="15.7677" y1="18.5" x2="51.1752" y2="18.5" gradientUnits="userSpaceOnUse">
<stop stop-color="#56AB2F"/>
<stop offset="1" stop-color="#A8E063"/>
</linearGradient>
<linearGradient id="paint16_linear" x1="15.7677" y1="18.5" x2="51.1752" y2="18.5" gradientUnits="userSpaceOnUse">
<stop stop-color="#56AB2F"/>
<stop offset="1" stop-color="#A8E063"/>
</linearGradient>
<linearGradient id="paint17_linear" x1="15.7677" y1="18.5" x2="51.1752" y2="18.5" gradientUnits="userSpaceOnUse">
<stop stop-color="#56AB2F"/>
<stop offset="1" stop-color="#A8E063"/>
</linearGradient>
</defs>
</svg>
